<mxfile host="Electron" modified="2024-01-15T17:38:41.025Z" agent="Mozilla/5.0 (Windows NT 10.0; Win64; x64) AppleWebKit/537.36 (KHTML, like Gecko) draw.io/22.1.16 Chrome/120.0.6099.109 Electron/28.1.0 Safari/537.36" etag="6cxWyaHGQYCBIpzwbZzm" version="22.1.16" type="device">
  <diagram id="C5RBs43oDa-KdzZeNtuy" name="Page-1">
    <mxGraphModel dx="989" dy="610" grid="1" gridSize="10" guides="1" tooltips="1" connect="1" arrows="1" fold="1" page="1" pageScale="1" pageWidth="827" pageHeight="1169" math="0" shadow="0">
      <root>
        <mxCell id="WIyWlLk6GJQsqaUBKTNV-0" />
        <mxCell id="WIyWlLk6GJQsqaUBKTNV-1" parent="WIyWlLk6GJQsqaUBKTNV-0" />
        <mxCell id="WIyWlLk6GJQsqaUBKTNV-2" value="" style="rounded=0;html=1;jettySize=auto;orthogonalLoop=1;fontSize=11;endArrow=block;endFill=0;endSize=8;strokeWidth=1;shadow=0;labelBackgroundColor=none;edgeStyle=orthogonalEdgeStyle;" parent="WIyWlLk6GJQsqaUBKTNV-1" source="WIyWlLk6GJQsqaUBKTNV-3" target="WIyWlLk6GJQsqaUBKTNV-7" edge="1">
          <mxGeometry relative="1" as="geometry">
            <mxPoint x="360" y="190" as="targetPoint" />
          </mxGeometry>
        </mxCell>
        <mxCell id="WIyWlLk6GJQsqaUBKTNV-3" value="App Starts" style="rounded=1;whiteSpace=wrap;html=1;fontSize=12;glass=0;strokeWidth=1;shadow=0;" parent="WIyWlLk6GJQsqaUBKTNV-1" vertex="1">
          <mxGeometry x="350" y="80" width="120" height="40" as="geometry" />
        </mxCell>
        <mxCell id="Ail5HjDmYe7EQc5PWK-Q-1" style="edgeStyle=orthogonalEdgeStyle;rounded=0;orthogonalLoop=1;jettySize=auto;html=1;" edge="1" parent="WIyWlLk6GJQsqaUBKTNV-1" source="WIyWlLk6GJQsqaUBKTNV-7">
          <mxGeometry relative="1" as="geometry">
            <mxPoint x="240.0344827586207" y="270.02758620689656" as="targetPoint" />
          </mxGeometry>
        </mxCell>
        <mxCell id="Ail5HjDmYe7EQc5PWK-Q-7" style="edgeStyle=orthogonalEdgeStyle;rounded=0;orthogonalLoop=1;jettySize=auto;html=1;entryX=0.5;entryY=0;entryDx=0;entryDy=0;" edge="1" parent="WIyWlLk6GJQsqaUBKTNV-1" source="WIyWlLk6GJQsqaUBKTNV-7">
          <mxGeometry relative="1" as="geometry">
            <mxPoint x="539.9999999999998" y="270" as="targetPoint" />
          </mxGeometry>
        </mxCell>
        <mxCell id="WIyWlLk6GJQsqaUBKTNV-7" value="Start Menu" style="rounded=0;whiteSpace=wrap;html=1;fontSize=12;glass=0;strokeWidth=1;shadow=0;" parent="WIyWlLk6GJQsqaUBKTNV-1" vertex="1">
          <mxGeometry x="350" y="170" width="120" height="40" as="geometry" />
        </mxCell>
        <mxCell id="Ail5HjDmYe7EQc5PWK-Q-8" value="Easy" style="edgeStyle=orthogonalEdgeStyle;rounded=0;orthogonalLoop=1;jettySize=auto;html=1;entryX=0;entryY=0.5;entryDx=0;entryDy=0;" edge="1" parent="WIyWlLk6GJQsqaUBKTNV-1" target="Ail5HjDmYe7EQc5PWK-Q-23">
          <mxGeometry x="-0.2696" relative="1" as="geometry">
            <mxPoint x="240" y="500" as="targetPoint" />
            <mxPoint x="190" y="310" as="sourcePoint" />
            <Array as="points">
              <mxPoint x="190" y="311" />
              <mxPoint x="141" y="311" />
              <mxPoint x="141" y="500" />
            </Array>
            <mxPoint as="offset" />
          </mxGeometry>
        </mxCell>
        <mxCell id="Ail5HjDmYe7EQc5PWK-Q-9" value="Medium" style="edgeStyle=orthogonalEdgeStyle;rounded=0;orthogonalLoop=1;jettySize=auto;html=1;entryX=0;entryY=0.5;entryDx=0;entryDy=0;exitX=0.25;exitY=1;exitDx=0;exitDy=0;" edge="1" parent="WIyWlLk6GJQsqaUBKTNV-1" source="Ail5HjDmYe7EQc5PWK-Q-21" target="Ail5HjDmYe7EQc5PWK-Q-23">
          <mxGeometry x="-0.4615" relative="1" as="geometry">
            <mxPoint x="240" y="400" as="targetPoint" />
            <mxPoint x="240.0344827586207" y="349.97241379310356" as="sourcePoint" />
            <mxPoint as="offset" />
          </mxGeometry>
        </mxCell>
        <mxCell id="Ail5HjDmYe7EQc5PWK-Q-18" value="Science:&lt;br&gt;Mathematics" style="edgeStyle=orthogonalEdgeStyle;rounded=0;orthogonalLoop=1;jettySize=auto;html=1;exitX=0.842;exitY=0.772;exitDx=0;exitDy=0;exitPerimeter=0;" edge="1" parent="WIyWlLk6GJQsqaUBKTNV-1" source="Ail5HjDmYe7EQc5PWK-Q-22" target="Ail5HjDmYe7EQc5PWK-Q-23">
          <mxGeometry x="-0.2774" y="-1" relative="1" as="geometry">
            <mxPoint x="610" y="500" as="targetPoint" />
            <mxPoint x="579.9999999999998" y="390" as="sourcePoint" />
            <Array as="points">
              <mxPoint x="581" y="310" />
              <mxPoint x="611" y="310" />
              <mxPoint x="611" y="500" />
            </Array>
            <mxPoint as="offset" />
          </mxGeometry>
        </mxCell>
        <mxCell id="Ail5HjDmYe7EQc5PWK-Q-19" value="Science:&lt;br&gt;Nature" style="edgeStyle=orthogonalEdgeStyle;rounded=0;orthogonalLoop=1;jettySize=auto;html=1;entryX=1;entryY=0.5;entryDx=0;entryDy=0;exitX=0.492;exitY=0.95;exitDx=0;exitDy=0;exitPerimeter=0;" edge="1" parent="WIyWlLk6GJQsqaUBKTNV-1" source="Ail5HjDmYe7EQc5PWK-Q-22" target="Ail5HjDmYe7EQc5PWK-Q-23">
          <mxGeometry x="-0.4532" relative="1" as="geometry">
            <mxPoint x="540" y="420" as="targetPoint" />
            <mxPoint x="539.9655172413793" y="349.97241379310367" as="sourcePoint" />
            <Array as="points">
              <mxPoint x="540" y="337" />
              <mxPoint x="540" y="500" />
            </Array>
            <mxPoint as="offset" />
          </mxGeometry>
        </mxCell>
        <mxCell id="Ail5HjDmYe7EQc5PWK-Q-20" value="Science:&lt;br&gt;Geography" style="edgeStyle=orthogonalEdgeStyle;rounded=0;orthogonalLoop=1;jettySize=auto;html=1;" edge="1" parent="WIyWlLk6GJQsqaUBKTNV-1" target="Ail5HjDmYe7EQc5PWK-Q-23">
          <mxGeometry x="-0.2661" relative="1" as="geometry">
            <mxPoint x="469.99999999999994" y="503" as="targetPoint" />
            <mxPoint x="590.3199999999998" y="310" as="sourcePoint" />
            <Array as="points">
              <mxPoint x="680" y="310" />
              <mxPoint x="680" y="500" />
            </Array>
            <mxPoint as="offset" />
          </mxGeometry>
        </mxCell>
        <mxCell id="Ail5HjDmYe7EQc5PWK-Q-46" value="Hard" style="edgeStyle=orthogonalEdgeStyle;rounded=0;orthogonalLoop=1;jettySize=auto;html=1;" edge="1" parent="WIyWlLk6GJQsqaUBKTNV-1" source="Ail5HjDmYe7EQc5PWK-Q-21" target="Ail5HjDmYe7EQc5PWK-Q-23">
          <mxGeometry x="-0.3" relative="1" as="geometry">
            <mxPoint x="270" y="500" as="targetPoint" />
            <Array as="points">
              <mxPoint x="270" y="500" />
            </Array>
            <mxPoint as="offset" />
          </mxGeometry>
        </mxCell>
        <mxCell id="Ail5HjDmYe7EQc5PWK-Q-21" value="Select Difficulty" style="shape=parallelogram;perimeter=parallelogramPerimeter;whiteSpace=wrap;html=1;fixedSize=1;" vertex="1" parent="WIyWlLk6GJQsqaUBKTNV-1">
          <mxGeometry x="180" y="280" width="120" height="60" as="geometry" />
        </mxCell>
        <mxCell id="Ail5HjDmYe7EQc5PWK-Q-53" value="Science:&lt;br&gt;Computers" style="edgeStyle=orthogonalEdgeStyle;rounded=0;orthogonalLoop=1;jettySize=auto;html=1;entryX=0.875;entryY=0;entryDx=0;entryDy=0;entryPerimeter=0;" edge="1" parent="WIyWlLk6GJQsqaUBKTNV-1" source="Ail5HjDmYe7EQc5PWK-Q-22" target="Ail5HjDmYe7EQc5PWK-Q-23">
          <mxGeometry x="0.2381" relative="1" as="geometry">
            <mxPoint x="485.90000000000003" y="270" as="sourcePoint" />
            <mxPoint x="450" y="462" as="targetPoint" />
            <Array as="points">
              <mxPoint x="450" y="310" />
            </Array>
            <mxPoint as="offset" />
          </mxGeometry>
        </mxCell>
        <mxCell id="Ail5HjDmYe7EQc5PWK-Q-55" value="Science:&lt;br&gt;Gadgets" style="edgeStyle=orthogonalEdgeStyle;rounded=0;orthogonalLoop=1;jettySize=auto;html=1;entryX=0.5;entryY=0;entryDx=0;entryDy=0;" edge="1" parent="WIyWlLk6GJQsqaUBKTNV-1" source="Ail5HjDmYe7EQc5PWK-Q-22" target="Ail5HjDmYe7EQc5PWK-Q-23">
          <mxGeometry x="0.4074" relative="1" as="geometry">
            <mxPoint as="offset" />
          </mxGeometry>
        </mxCell>
        <mxCell id="Ail5HjDmYe7EQc5PWK-Q-22" value="Select Topic" style="shape=parallelogram;perimeter=parallelogramPerimeter;whiteSpace=wrap;html=1;fixedSize=1;" vertex="1" parent="WIyWlLk6GJQsqaUBKTNV-1">
          <mxGeometry x="480" y="280" width="120" height="60" as="geometry" />
        </mxCell>
        <mxCell id="Ail5HjDmYe7EQc5PWK-Q-47" style="edgeStyle=orthogonalEdgeStyle;rounded=0;orthogonalLoop=1;jettySize=auto;html=1;entryX=0.5;entryY=0;entryDx=0;entryDy=0;" edge="1" parent="WIyWlLk6GJQsqaUBKTNV-1" source="Ail5HjDmYe7EQc5PWK-Q-23" target="Ail5HjDmYe7EQc5PWK-Q-31">
          <mxGeometry relative="1" as="geometry" />
        </mxCell>
        <mxCell id="Ail5HjDmYe7EQc5PWK-Q-23" value="Question 1&lt;br&gt;(Selected Topic &amp;amp; Difficulty" style="rounded=0;whiteSpace=wrap;html=1;fontSize=12;glass=0;strokeWidth=1;shadow=0;" vertex="1" parent="WIyWlLk6GJQsqaUBKTNV-1">
          <mxGeometry x="310" y="480" width="160" height="40" as="geometry" />
        </mxCell>
        <mxCell id="Ail5HjDmYe7EQc5PWK-Q-48" style="edgeStyle=orthogonalEdgeStyle;rounded=0;orthogonalLoop=1;jettySize=auto;html=1;" edge="1" parent="WIyWlLk6GJQsqaUBKTNV-1" source="Ail5HjDmYe7EQc5PWK-Q-31" target="Ail5HjDmYe7EQc5PWK-Q-32">
          <mxGeometry relative="1" as="geometry" />
        </mxCell>
        <mxCell id="Ail5HjDmYe7EQc5PWK-Q-31" value="Question 2&lt;br&gt;(Selected Topic &amp;amp; Difficulty" style="rounded=0;whiteSpace=wrap;html=1;fontSize=12;glass=0;strokeWidth=1;shadow=0;" vertex="1" parent="WIyWlLk6GJQsqaUBKTNV-1">
          <mxGeometry x="310" y="540" width="160" height="40" as="geometry" />
        </mxCell>
        <mxCell id="Ail5HjDmYe7EQc5PWK-Q-49" style="edgeStyle=orthogonalEdgeStyle;rounded=0;orthogonalLoop=1;jettySize=auto;html=1;" edge="1" parent="WIyWlLk6GJQsqaUBKTNV-1" source="Ail5HjDmYe7EQc5PWK-Q-32" target="Ail5HjDmYe7EQc5PWK-Q-33">
          <mxGeometry relative="1" as="geometry" />
        </mxCell>
        <mxCell id="Ail5HjDmYe7EQc5PWK-Q-32" value="Question 3&lt;br&gt;(Selected Topic &amp;amp; Difficulty" style="rounded=0;whiteSpace=wrap;html=1;fontSize=12;glass=0;strokeWidth=1;shadow=0;" vertex="1" parent="WIyWlLk6GJQsqaUBKTNV-1">
          <mxGeometry x="310" y="600" width="160" height="40" as="geometry" />
        </mxCell>
        <mxCell id="Ail5HjDmYe7EQc5PWK-Q-50" style="edgeStyle=orthogonalEdgeStyle;rounded=0;orthogonalLoop=1;jettySize=auto;html=1;" edge="1" parent="WIyWlLk6GJQsqaUBKTNV-1" source="Ail5HjDmYe7EQc5PWK-Q-33" target="Ail5HjDmYe7EQc5PWK-Q-35">
          <mxGeometry relative="1" as="geometry" />
        </mxCell>
        <mxCell id="Ail5HjDmYe7EQc5PWK-Q-33" value="Question 4&lt;br&gt;(Selected Topic &amp;amp; Difficulty" style="rounded=0;whiteSpace=wrap;html=1;fontSize=12;glass=0;strokeWidth=1;shadow=0;" vertex="1" parent="WIyWlLk6GJQsqaUBKTNV-1">
          <mxGeometry x="310" y="660" width="160" height="40" as="geometry" />
        </mxCell>
        <mxCell id="Ail5HjDmYe7EQc5PWK-Q-39" value="else:" style="edgeStyle=orthogonalEdgeStyle;rounded=0;orthogonalLoop=1;jettySize=auto;html=1;" edge="1" parent="WIyWlLk6GJQsqaUBKTNV-1" source="Ail5HjDmYe7EQc5PWK-Q-34" target="Ail5HjDmYe7EQc5PWK-Q-38">
          <mxGeometry relative="1" as="geometry" />
        </mxCell>
        <mxCell id="Ail5HjDmYe7EQc5PWK-Q-41" value="if score = 0 or 1 or 2 or 3" style="edgeStyle=orthogonalEdgeStyle;rounded=0;orthogonalLoop=1;jettySize=auto;html=1;" edge="1" parent="WIyWlLk6GJQsqaUBKTNV-1" source="Ail5HjDmYe7EQc5PWK-Q-34" target="Ail5HjDmYe7EQc5PWK-Q-40">
          <mxGeometry relative="1" as="geometry" />
        </mxCell>
        <mxCell id="Ail5HjDmYe7EQc5PWK-Q-34" value="Final Screen" style="rounded=0;whiteSpace=wrap;html=1;fontSize=12;glass=0;strokeWidth=1;shadow=0;" vertex="1" parent="WIyWlLk6GJQsqaUBKTNV-1">
          <mxGeometry x="310" y="790" width="160" height="40" as="geometry" />
        </mxCell>
        <mxCell id="Ail5HjDmYe7EQc5PWK-Q-51" style="edgeStyle=orthogonalEdgeStyle;rounded=0;orthogonalLoop=1;jettySize=auto;html=1;" edge="1" parent="WIyWlLk6GJQsqaUBKTNV-1" source="Ail5HjDmYe7EQc5PWK-Q-35" target="Ail5HjDmYe7EQc5PWK-Q-34">
          <mxGeometry relative="1" as="geometry" />
        </mxCell>
        <mxCell id="Ail5HjDmYe7EQc5PWK-Q-35" value="Question 5&lt;br&gt;(Selected Topic &amp;amp; Difficulty" style="rounded=0;whiteSpace=wrap;html=1;fontSize=12;glass=0;strokeWidth=1;shadow=0;" vertex="1" parent="WIyWlLk6GJQsqaUBKTNV-1">
          <mxGeometry x="310" y="730" width="160" height="40" as="geometry" />
        </mxCell>
        <mxCell id="Ail5HjDmYe7EQc5PWK-Q-44" style="edgeStyle=orthogonalEdgeStyle;rounded=0;orthogonalLoop=1;jettySize=auto;html=1;" edge="1" parent="WIyWlLk6GJQsqaUBKTNV-1" source="Ail5HjDmYe7EQc5PWK-Q-38" target="Ail5HjDmYe7EQc5PWK-Q-43">
          <mxGeometry relative="1" as="geometry" />
        </mxCell>
        <mxCell id="Ail5HjDmYe7EQc5PWK-Q-38" value="Congrats, You&#39;re a Trivia Master" style="whiteSpace=wrap;html=1;rounded=0;glass=0;strokeWidth=1;shadow=0;" vertex="1" parent="WIyWlLk6GJQsqaUBKTNV-1">
          <mxGeometry x="420" y="910" width="120" height="60" as="geometry" />
        </mxCell>
        <mxCell id="Ail5HjDmYe7EQc5PWK-Q-45" style="edgeStyle=orthogonalEdgeStyle;rounded=0;orthogonalLoop=1;jettySize=auto;html=1;" edge="1" parent="WIyWlLk6GJQsqaUBKTNV-1" source="Ail5HjDmYe7EQc5PWK-Q-40" target="Ail5HjDmYe7EQc5PWK-Q-43">
          <mxGeometry relative="1" as="geometry" />
        </mxCell>
        <mxCell id="Ail5HjDmYe7EQc5PWK-Q-40" value="It&#39;s okay we learn! Let&#39;s Try Again!" style="whiteSpace=wrap;html=1;rounded=0;glass=0;strokeWidth=1;shadow=0;" vertex="1" parent="WIyWlLk6GJQsqaUBKTNV-1">
          <mxGeometry x="240" y="910" width="120" height="60" as="geometry" />
        </mxCell>
        <mxCell id="Ail5HjDmYe7EQc5PWK-Q-56" style="edgeStyle=orthogonalEdgeStyle;rounded=0;orthogonalLoop=1;jettySize=auto;html=1;entryX=0.5;entryY=0;entryDx=0;entryDy=0;" edge="1" parent="WIyWlLk6GJQsqaUBKTNV-1" target="WIyWlLk6GJQsqaUBKTNV-7">
          <mxGeometry relative="1" as="geometry">
            <mxPoint x="410.0344827586207" y="160" as="targetPoint" />
            <mxPoint x="440.0000000000002" y="1060" as="sourcePoint" />
            <Array as="points">
              <mxPoint x="740" y="1060" />
              <mxPoint x="740" y="140" />
              <mxPoint x="410" y="140" />
            </Array>
          </mxGeometry>
        </mxCell>
        <mxCell id="Ail5HjDmYe7EQc5PWK-Q-43" value="Button to Start&lt;br&gt;Again" style="shape=parallelogram;perimeter=parallelogramPerimeter;whiteSpace=wrap;html=1;fixedSize=1;" vertex="1" parent="WIyWlLk6GJQsqaUBKTNV-1">
          <mxGeometry x="330" y="1040" width="120" height="60" as="geometry" />
        </mxCell>
      </root>
    </mxGraphModel>
  </diagram>
</mxfile>
